HIERARCHY
ROOT Hips
{
	OFFSET 0.000000 0.000000 0.000000 
	CHANNELS 6 Xposition Yposition Zposition Zrotation Yrotation Xrotation
	JOINT LeftUpLeg
	{
		OFFSET 1.363060 -1.794630 0.839290 
		CHANNELS 3 Zrotation Yrotation Xrotation
		JOINT LeftLeg
		{
			OFFSET 2.448110 -6.726130 0.000000 
			CHANNELS 3 Zrotation Yrotation Xrotation
			JOINT LeftFoot
			{
				OFFSET 2.562200 -7.039590 0.000000 
				CHANNELS 3 Zrotation Yrotation Xrotation
				JOINT LeftToeBase
				{
					OFFSET 0.157640 -0.433110 2.322550 
					CHANNELS 3 Zrotation Yrotation Xrotation
					End Site
					{
						OFFSET 0.000000 0.000000 0.000000 
					}
				}
			}
		}
	}
	JOINT RightUpLeg
	{
		OFFSET -1.305520 -1.794630 0.839290 
		CHANNELS 3 Zrotation Yrotation Xrotation
		JOINT RightLeg
		{
			OFFSET -2.542530 -6.985550 0.000000 
			CHANNELS 3 Zrotation Yrotation Xrotation
			JOINT RightFoot
			{
				OFFSET -2.568260 -7.056230 0.000000 
				CHANNELS 3 Zrotation Yrotation Xrotation
				JOINT RightToeBase
				{
					OFFSET -0.164730 -0.452590 2.363150 
					CHANNELS 3 Zrotation Yrotation Xrotation
					End Site
					{
						OFFSET 0.000000 0.000000 0.000000 
					}
				}
			}
		}
	}
	JOINT Spine
	{
		OFFSET 0.028270 2.035590 -0.193380 
		CHANNELS 3 Zrotation Yrotation Xrotation
		JOINT Spine1
		{
			OFFSET 0.056720 2.048850 -0.042750 
			CHANNELS 3 Zrotation Yrotation Xrotation
			JOINT Neck1
			{
				OFFSET -0.054170 1.746240 0.172020 
				CHANNELS 3 Zrotation Yrotation Xrotation
				JOINT Head
				{
					OFFSET 0.104070 1.761360 -0.123970 
					CHANNELS 3 Zrotation Yrotation Xrotation
					End Site
					{
						OFFSET 0.000000 0.000000 0.000000 
					}
				}
			}
			JOINT LeftArm
			{
				OFFSET 3.362410 1.200890 -0.311210 
				CHANNELS 3 Zrotation Yrotation Xrotation
				JOINT LeftForeArm
				{
					OFFSET 4.983000 -0.000000 -0.000000 
					CHANNELS 3 Zrotation Yrotation Xrotation
					JOINT LeftHand
					{
						OFFSET 3.483560 -0.000000 -0.000000 
						CHANNELS 3 Zrotation Yrotation Xrotation
						JOINT LeftHandIndex1
						{
							OFFSET 0.715260 -0.000000 -0.000000 
							CHANNELS 3 Zrotation Yrotation Xrotation
							End Site
							{
								OFFSET 0.000000 0.000000 0.000000 
							}
						}
					}
				}
			}
			JOINT RightArm
			{
				OFFSET -3.136600 1.374050 -0.404650 
				CHANNELS 3 Zrotation Yrotation Xrotation
				JOINT RightForeArm
				{
					OFFSET -5.241900 -0.000000 -0.000000 
					CHANNELS 3 Zrotation Yrotation Xrotation
					JOINT RightHand
					{
						OFFSET -3.444170 -0.000000 -0.000000 
						CHANNELS 3 Zrotation Yrotation Xrotation
						JOINT RightHandIndex1
						{
							OFFSET -0.622530 -0.000000 -0.000000 
							CHANNELS 3 Zrotation Yrotation Xrotation
							End Site
							{
								OFFSET 0.000000 0.000000 0.000000 
							}
						}
					}
				}
			}
		}
	}
}
MOTION
Frames: 10
Frame Time: 0.041667
-0.477257 17.847090 -30.605231 -1.195710 35.055388 2.405239 -7.331008 -12.591527 -7.492453 0.177895 8.514084 22.485570 -0.335515 3.886946 3.105419 0.299700 -3.520000 -9.730000 17.678042 -11.297254 -7.819867 -1.283879 -9.230245 24.007000 8.064366 -32.689843 -20.114055 -0.001200 -0.226400 0.622000 2.795227 9.093595 -0.439806 0.146521 4.561976 -1.319409 -2.437766 26.010084 16.323451 -1.623900 12.876200 12.432700 -94.798815 -4.992671 20.229297 12.531597 -20.449348 -2.077999 0.397476 0.138469 -3.441361 -7.125000 0.000000 0.000000 78.581797 -14.279460 -1.250916 -24.890103 35.391587 -7.809043 0.127224 -0.650132 -13.564427 7.125000 0.000000 0.000000 
-0.474474 17.846692 -30.609504 -1.123409 35.005045 2.435280 -7.422786 -12.664945 -7.440232 0.172676 8.509019 22.460123 -0.362564 3.989972 3.096200 0.302700 -3.537200 -9.778200 17.582106 -11.302066 -7.838311 -1.292066 -9.243561 24.051293 8.054699 -32.647773 -20.063879 -0.001400 -0.244500 0.671700 2.807451 9.123410 -0.385955 0.175471 4.567434 -1.266221 1.388109 26.076378 16.713211 0.031600 13.016700 10.799400 -94.898110 -5.101849 20.033768 12.371357 -20.220264 -2.031222 0.411230 0.128834 -3.177786 -7.125000 0.000000 0.000000 78.621086 -14.009326 -1.061700 -24.921401 35.439938 -7.831063 0.123633 -0.649591 -13.456164 7.125000 0.000000 0.000000 
-0.471195 17.844903 -30.607616 -1.076686 34.999619 2.436700 -7.491428 -12.710519 -7.372148 0.171693 8.511885 22.459514 -0.383939 4.065571 3.031290 0.304000 -3.544700 -9.799300 17.518997 -11.377853 -7.809787 -1.291803 -9.240141 24.042544 8.032556 -32.578813 -20.033300 -0.001300 -0.228600 0.628000 2.825516 9.149168 -0.366534 0.196746 4.577080 -1.245140 1.549103 26.118538 17.009823 0.195600 13.007000 10.912400 -95.000757 -5.221585 19.429761 12.126306 -19.857271 -1.954280 0.411984 0.093337 -2.235489 -7.125000 0.000000 0.000000 78.753147 -13.844027 -0.981718 -24.999613 35.529071 -7.876232 0.117535 -0.648895 -13.151032 7.125000 0.000000 0.000000 
-0.475965 17.846493 -30.609504 -1.149384 35.057532 2.419002 -7.397015 -12.727633 -7.422906 0.170803 8.505541 22.448584 -0.366705 4.005269 3.089043 0.299800 -3.520300 -9.731000 17.626991 -11.266032 -7.814472 -1.288129 -9.238674 24.039719 8.056950 -32.679510 -20.176732 -0.001600 -0.259100 0.712000 2.855211 9.150852 -0.416446 0.188608 4.577430 -1.320156 1.413627 26.110812 17.042620 0.130600 13.008100 11.003700 -95.069240 -5.323959 18.859516 11.909246 -19.557246 -1.897969 0.440416 0.111282 -1.480736 -7.125000 0.000000 0.000000 78.856114 -13.750137 -0.801122 -25.052669 35.591553 -7.910637 0.117558 -0.650354 -13.093230 7.125000 0.000000 0.000000 
-0.477058 17.846493 -30.610895 -1.153961 35.085670 2.421051 -7.389168 -12.758711 -7.427059 0.170309 8.504329 22.445938 -0.365796 4.001927 3.096065 0.299100 -3.516700 -9.720800 17.641794 -11.244845 -7.810240 -1.285448 -9.234130 24.027237 8.062468 -32.704453 -20.220672 -0.001800 -0.273400 0.751200 2.833376 9.219690 -0.448810 0.123646 4.610052 -1.369427 1.671458 26.105767 17.091517 0.236100 13.014900 10.910600 -95.065209 -5.428068 18.433843 11.691361 -19.241562 -1.837590 0.458469 0.106137 -0.700652 -7.125000 0.000000 0.000000 79.041102 -13.612737 -0.784358 -25.051602 35.600671 -7.914448 0.114653 -0.650957 -12.948139 7.125000 0.000000 0.000000 
-0.478648 17.846593 -30.612684 -1.166250 35.122726 2.427358 -7.368516 -12.780155 -7.449685 0.170502 8.503511 22.446772 -0.359752 3.979541 3.111046 0.298500 -3.512900 -9.710200 17.667756 -11.221515 -7.815034 -1.281808 -9.227919 24.008735 8.071214 -32.738025 -20.263693 -0.002000 -0.287300 0.789400 2.821034 9.277957 -0.483835 0.070353 4.639190 -1.421747 1.662879 26.105336 16.997575 0.220300 13.016300 10.867500 -95.075688 -5.543895 17.921074 11.471535 -18.922858 -1.778044 0.477414 0.099988 0.116998 -7.125000 0.000000 0.000000 79.213654 -13.489365 -0.772700 -25.043316 35.601041 -7.914046 0.112093 -0.651610 -12.811536 7.125000 0.000000 0.000000 
-0.480337 17.846990 -30.615367 -1.182502 35.160181 2.440244 -7.341219 -12.796114 -7.485484 0.170393 8.501211 22.445139 -0.352011 3.951583 3.135479 0.298100 -3.510600 -9.703600 17.697514 -11.196039 -7.836500 -1.279373 -9.224038 23.997146 8.081539 -32.773918 -20.297666 -0.002100 -0.299000 0.821500 2.810387 9.338698 -0.520038 0.017911 4.670355 -1.474187 1.624169 26.113050 16.812963 0.182000 13.021500 10.785000 -95.088628 -5.671111 17.374022 11.253271 -18.605643 -1.720236 0.497676 0.093126 0.907010 -7.125000 0.000000 0.000000 79.376305 -13.369186 -0.777655 -25.008294 35.573330 -7.898661 0.109755 -0.652287 -12.700549 7.125000 0.000000 0.000000 
-0.481629 17.847288 -30.618447 -1.202364 35.195236 2.454399 -7.311224 -12.806486 -7.528376 0.170927 8.499755 22.446386 -0.343586 3.920543 3.159766 0.297900 -3.509800 -9.701400 17.727225 -11.177844 -7.864060 -1.276517 -9.218721 23.981188 8.091523 -32.805300 -20.315543 -0.002300 -0.307300 0.844400 2.816651 9.379809 -0.547082 -0.009682 4.692349 -1.513509 1.560681 26.144790 16.616868 0.140200 13.034500 10.699300 -95.129526 -5.812464 16.729139 11.035409 -18.288013 -1.663482 0.517915 0.083030 1.660365 -7.125000 0.000000 0.000000 79.504368 -13.248964 -0.765477 -24.960887 35.531985 -7.876274 0.107216 -0.652811 -12.590161 7.125000 0.000000 0.000000 
-0.482523 17.847884 -30.622024 -1.219707 35.231386 2.474678 -7.283007 -12.810931 -7.579794 0.171479 8.498523 22.449009 -0.332739 3.880256 3.186007 0.297400 -3.506600 -9.692600 17.751897 -11.171296 -7.899284 -1.273339 -9.211881 23.960427 8.100951 -32.831128 -20.317619 -0.002300 -0.313100 0.860100 2.843675 9.389321 -0.564050 -0.002608 4.698994 -1.537824 1.500248 26.211871 16.420218 0.111200 13.060000 10.606000 -95.206452 -5.962030 16.006572 10.825981 -17.983636 -1.610453 0.538954 0.073295 2.265596 -7.125000 0.000000 0.000000 79.585925 -13.135180 -0.706494 -24.908142 35.484175 -7.851191 0.104757 -0.653339 -12.474777 7.125000 0.000000 0.000000 
-0.483219 17.848580 -30.625601 -1.244236 35.269837 2.490241 -7.248385 -12.814328 -7.631938 0.172315 8.497709 22.453074 -0.320033 3.832915 3.209530 0.296600 -3.502200 -9.680100 17.782559 -11.167162 -7.930988 -1.268956 -9.202456 23.932334 8.109735 -32.855654 -20.321534 -0.002400 -0.319400 0.877700 2.887445 9.377467 -0.575102 0.030019 4.694948 -1.553173 1.457478 26.289007 16.281985 0.100700 13.088700 10.532000 -95.303393 -6.112320 15.238438 10.625875 -17.693367 -1.561139 0.560903 0.065280 2.719615 -7.125000 0.000000 0.000000 79.637671 -13.029256 -0.629640 -24.844578 35.424902 -7.820732 0.102152 -0.653844 -12.326716 7.125000 0.000000 0.000000 
